<svg width="337" height="127" viewBox="0 0 337 127" fill="none" xmlns="http://www.w3.org/2000/svg">
    <mask id="mask0_0_1" style="mask-type:luminance" maskUnits="userSpaceOnUse" x="0" y="-212" width="339" height="339">
        <path fill-rule="evenodd" clip-rule="evenodd"
            d="M20.2618 -211.581C9.21615 -211.581 0.261841 -202.627 0.261841 -191.581V106.419C0.261841 117.465 9.21615 126.419 20.2618 126.419H318.262C329.308 126.419 338.262 117.465 338.262 106.419V-191.581C338.262 -202.626 329.308 -211.581 318.262 -211.581H20.2618Z"
            fill="white" />
    </mask>
    <g mask="url(#mask0_0_1)">
        <g opacity="0.41644">
            <g opacity="0.643003">
                <path fill-rule="evenodd" clip-rule="evenodd"
                    d="M231.135 87.2643L193.177 30.298L155.219 87.2643H231.135Z" fill="#7A9FBC" />
                <path fill-rule="evenodd" clip-rule="evenodd" d="M230.607 87.2643H193.177V30.298L230.607 87.2643Z"
                    fill="#598CBD" />
                <path fill-rule="evenodd" clip-rule="evenodd"
                    d="M193.177 30.298V47.6079C192.781 48.9134 192.352 50.1871 190.758 50.1871C187.667 50.1871 189.985 45.0528 187.153 45.4071C184.693 45.7143 180.875 50.8265 177.888 52.979L193.177 30.298Z"
                    fill="#C6D9E4" />
                <path fill-rule="evenodd" clip-rule="evenodd"
                    d="M202.139 44.3306C200.97 43.5639 200.062 43.1386 199.705 43.3548C198.233 44.245 200.195 46.7373 198.233 47.4495C196.269 48.1615 197.496 44.4231 195.043 44.9568C193.856 45.2154 193.53 46.4737 193.177 47.7043V30.298L202.139 44.3306Z"
                    fill="#9EB9DD" />
                <path fill-rule="evenodd" clip-rule="evenodd"
                    d="M152.366 99.2604C138.948 87.3787 127.612 77.0232 113.512 60.9918C109.389 56.3039 103.951 49.1621 100.31 48.4663C90.534 46.5979 81.7074 56.2271 73.7423 65.4299C65.0526 75.4701 56.3628 85.5103 47.673 95.5504C63.0841 102.479 79.4226 97.4937 95.3896 98.2049C112.063 98.9476 128.423 105.946 145.068 107.711C147.51 107.97 150.146 108.031 152.168 105.76C154.191 103.488 154.989 97.9697 153.073 95.4602"
                    fill="#CCEFEA" />
                <path fill-rule="evenodd" clip-rule="evenodd"
                    d="M73.8634 65.2881C81.5296 56.5419 90.1017 47.4039 99.3374 48.2916V98.0672C98.0968 97.9489 96.8551 97.8562 95.6113 97.8014C79.5701 97.0959 63.1557 102.042 47.673 95.1682C56.4031 85.2081 65.1333 75.2482 73.8634 65.2881Z"
                    fill="#E2F8F7" />
                <path fill-rule="evenodd" clip-rule="evenodd"
                    d="M177.888 73.5504L142.567 20.2763L107.245 73.5504H177.888Z" fill="#7A9FBC" />
                <path fill-rule="evenodd" clip-rule="evenodd" d="M177.889 73.5504H142.567V20.2763L177.889 73.5504Z"
                    fill="#598CBD" />
                <path fill-rule="evenodd" clip-rule="evenodd"
                    d="M142.567 20.2763V36.3786C142.198 37.593 141.799 38.7777 140.314 38.7777C137.437 38.7777 139.595 34.0018 136.958 34.3313C134.668 34.6171 131.113 39.3725 128.333 41.375L142.567 20.2763Z"
                    fill="#C6D9E4" />
                <path fill-rule="evenodd" clip-rule="evenodd"
                    d="M151.002 33.8837C149.902 33.1403 149.047 32.7279 148.711 32.9375C147.325 33.8008 149.172 36.2174 147.325 36.9081C145.478 37.5986 146.632 33.9734 144.323 34.491C143.206 34.7417 142.9 35.962 142.567 37.1552V20.2763L151.002 33.8837Z"
                    fill="#9EB9DD" />
                <path fill-rule="evenodd" clip-rule="evenodd"
                    d="M106.191 126.824L61.9075 59.836L17.6234 126.824H106.191Z" fill="#7A9FBC" />
                <path fill-rule="evenodd" clip-rule="evenodd" d="M106.191 126.824H61.9072V59.836L106.191 126.824Z"
                    fill="#598CBD" />
                <path fill-rule="evenodd" clip-rule="evenodd"
                    d="M61.9071 59.836V80.3665C61.4428 81.9148 60.9404 83.4254 59.0706 83.4254C55.4476 83.4254 58.1648 77.336 54.844 77.7561C51.9601 78.1206 47.4839 84.1837 43.9827 86.7368L61.9071 59.836Z"
                    fill="#C6D9E4" />
                <path fill-rule="evenodd" clip-rule="evenodd"
                    d="M72.9782 76.42C71.5342 75.514 70.4116 75.0113 69.9709 75.2668C68.1522 76.3189 70.5767 79.2642 68.1522 80.106C65.7272 80.9474 67.2427 76.5292 64.2117 77.1601C62.7457 77.4656 62.3437 78.9528 61.9072 80.4072V59.836L72.9782 76.42Z"
                    fill="#9EB9DD" />
                <path fill-rule="evenodd" clip-rule="evenodd"
                    d="M125.697 83.3083C125.697 87.5323 143.045 90.9566 164.445 90.9566C185.845 90.9566 203.194 87.5323 203.194 83.3083C203.194 79.0843 185.845 75.6601 164.445 75.6601C143.045 75.6601 125.697 79.0843 125.697 83.3083Z"
                    fill="#7BA0D1" />
                <path fill-rule="evenodd" clip-rule="evenodd"
                    d="M203.194 82.5172L164.445 0.232498L125.697 82.5172H203.194Z" fill="#7A9FBC" />
                <path fill-rule="evenodd" clip-rule="evenodd" d="M203.193 82.5172H164.709V0.232498L203.193 82.5172Z"
                    fill="#598CBD" />
                <path fill-rule="evenodd" clip-rule="evenodd"
                    d="M163.654 0.232498V25.5935C163.259 27.5062 162.83 29.3721 161.235 29.3721C158.145 29.3721 160.462 21.8502 157.63 22.369C155.17 22.8194 151.352 30.3094 148.366 33.4628L163.654 0.232498Z"
                    fill="#DEFAFF" />
                <path fill-rule="evenodd" clip-rule="evenodd"
                    d="M174.198 20.6436C172.96 19.5289 171.998 18.9099 171.62 19.2245C170.061 20.5192 172.14 24.1444 170.061 25.18C167.983 26.2158 169.282 20.7781 166.684 21.5552C165.427 21.9306 165.083 23.7613 164.709 25.5509V0.232498L174.198 20.6436Z"
                    fill="#BCD2DF" />
                <path fill-rule="evenodd" clip-rule="evenodd"
                    d="M212.77 92.9994C197.691 79.7507 184.953 68.2039 169.107 50.3281C164.474 45.101 158.363 37.1375 154.272 36.3617C143.286 34.2784 133.367 45.0154 124.416 55.2769C114.651 66.4722 104.885 77.6674 95.12 88.8627C112.439 96.5885 130.799 91.0294 148.742 91.8225C167.479 92.6507 185.864 100.455 204.569 102.422C207.313 102.711 210.276 102.779 212.548 100.246C214.82 97.7134 215.718 91.5602 213.565 88.762"
                    fill="#E2F8F7" />
                <path fill-rule="evenodd" clip-rule="evenodd"
                    d="M124.517 55.2885C133.122 45.449 142.744 35.1688 153.111 36.1675V92.1651C151.718 92.0318 150.324 91.9276 148.928 91.866C130.923 91.0723 112.499 96.6363 95.12 88.9036C104.919 77.6985 114.718 66.4935 124.517 55.2885Z"
                    fill="#CCEFEA" />
                <path fill-rule="evenodd" clip-rule="evenodd"
                    d="M259.385 98.733C245.967 86.8513 234.631 76.4958 220.531 60.4644C216.408 55.7764 210.97 48.6347 207.33 47.9389C197.553 46.0705 188.727 55.6996 180.761 64.9025C172.072 74.9427 163.382 84.9829 154.692 95.023C170.103 101.952 186.442 96.9663 202.409 97.6775C219.082 98.4202 235.442 105.419 252.088 107.184C254.529 107.442 257.165 107.504 259.188 105.232C261.21 102.961 262.009 97.4422 260.093 94.9328"
                    fill="#E2F8F7" />
                <path fill-rule="evenodd" clip-rule="evenodd"
                    d="M180.883 64.7607C188.549 56.0145 197.121 46.8765 206.357 47.7642V97.5398C205.116 97.4213 203.874 97.3288 202.63 97.274C186.589 96.5685 170.175 101.514 154.692 94.6408C163.422 84.6807 172.152 74.7207 180.883 64.7607Z"
                    fill="#CCEFEA" />
                <path fill-rule="evenodd" clip-rule="evenodd"
                    d="M152.25 48.4417C151.347 48.3122 150.642 47.4177 149.732 47.4931C149.134 47.5426 148.664 48.0045 148.097 48.1967C147.046 48.5531 145.902 47.9351 144.794 48.0374C143.692 48.1392 142.669 48.9487 141.587 48.7214C141.13 48.6255 140.736 48.3534 140.304 48.1815C139.115 47.7091 137.749 48.0271 136.493 47.7681C135.475 47.5583 134.462 46.97 133.463 47.252C132.935 47.4011 132.51 47.7751 132.106 48.1375C131.764 48.4444 131.422 48.7513 131.08 49.0582C131.029 49.1035 130.976 49.1552 130.969 49.2217C130.959 49.3405 131.098 49.4135 131.214 49.4515C134.538 50.5349 138.158 49.6092 141.665 49.6094C144.537 49.6095 147.373 50.2395 150.243 50.3352C150.75 50.3522 151.276 50.3492 151.742 50.153C152.207 49.9568 152.601 49.5192 152.583 49.0269C152.575 48.8156 152.487 48.6014 152.317 48.4691"
                    fill="#CCEFEA" />
                <path fill-rule="evenodd" clip-rule="evenodd"
                    d="M207.938 125.505C207.938 129.438 224.342 132.626 244.578 132.626C264.813 132.626 281.217 129.438 281.217 125.505C281.217 121.573 264.813 118.385 244.578 118.385C224.342 118.385 207.938 121.573 207.938 125.505Z"
                    fill="#7BA0D1" />
                <path fill-rule="evenodd" clip-rule="evenodd"
                    d="M281.217 125.769L244.578 48.2318L207.938 125.769H281.217Z" fill="#7A9FBC" />
                <path fill-rule="evenodd" clip-rule="evenodd" d="M280.163 125.769H244.314V48.2318L280.163 125.769Z"
                    fill="#598CBD" />
                <path fill-rule="evenodd" clip-rule="evenodd"
                    d="M244.314 48.2318V72.3852C243.932 74.2067 243.519 75.9838 241.979 75.9838C238.995 75.9838 241.233 68.8201 238.498 69.3141C236.123 69.7431 232.436 76.8765 229.553 79.8797L244.314 48.2318Z"
                    fill="#DEFAFF" />
                <path fill-rule="evenodd" clip-rule="evenodd"
                    d="M253.277 67.3671C252.107 66.3221 251.199 65.7418 250.842 66.0368C249.37 67.2505 251.332 70.6491 249.37 71.62C247.407 72.591 248.634 67.4933 246.18 68.2218C244.993 68.5737 244.668 70.2899 244.314 71.9677V48.2318L253.277 67.3671Z"
                    fill="#BCD2DF" />
                <path fill-rule="evenodd" clip-rule="evenodd"
                    d="M157.328 130.78C157.328 134.713 173.732 137.901 193.968 137.901C214.203 137.901 230.607 134.713 230.607 130.78C230.607 126.848 214.203 123.66 193.968 123.66C173.732 123.66 157.328 126.848 157.328 130.78Z"
                    fill="#7BA0D1" />
                <path fill-rule="evenodd" clip-rule="evenodd"
                    d="M230.607 131.044L193.968 53.5064L157.328 131.044H230.607Z" fill="#98B4DB" />
                <path fill-rule="evenodd" clip-rule="evenodd" d="M230.607 131.044H194.758V53.5064L230.607 131.044Z"
                    fill="#598CBD" />
                <path fill-rule="evenodd" clip-rule="evenodd"
                    d="M194.759 53.5064V77.6598C194.377 79.4814 193.963 81.2585 192.423 81.2585C189.44 81.2585 191.677 74.0947 188.942 74.5888C186.567 75.0178 182.881 82.1511 179.998 85.1544L194.759 53.5064Z"
                    fill="#DEFAFF" />
                <path fill-rule="evenodd" clip-rule="evenodd"
                    d="M203.721 72.6418C202.551 71.5968 201.643 71.0164 201.286 71.3113C199.814 72.5252 201.776 75.9237 199.814 76.8946C197.851 77.8656 199.078 72.768 196.624 73.4964C195.437 73.8484 195.112 75.5645 194.758 77.2424V53.5064L203.721 72.6418Z"
                    fill="#BCD2DF" />
                <path fill-rule="evenodd" clip-rule="evenodd"
                    d="M129.387 81.4624C129.387 83.793 145.202 85.682 164.709 85.682C184.216 85.682 200.03 83.793 200.03 81.4624C200.03 79.1322 184.216 77.2425 164.709 77.2425C145.202 77.2425 129.387 79.1322 129.387 81.4624Z"
                    fill="#9CB8DC" />
                <path fill-rule="evenodd" clip-rule="evenodd"
                    d="M200.03 81.4623L164.709 38.2101L129.387 81.4623H200.03Z" fill="#7A9FBC" />
                <path fill-rule="evenodd" clip-rule="evenodd" d="M200.558 81.4623H165.236V38.2101L200.558 81.4623Z"
                    fill="#598CBD" />
                <path fill-rule="evenodd" clip-rule="evenodd"
                    d="M164.182 38.2101V56.7419C163.733 57.5608 163.061 58.1842 161.896 58.2491C158.293 58.4501 161.596 52.1199 159.394 52.1199C157.192 52.1199 156.892 56.9431 154.49 57.1441C152.335 57.3242 153.883 53.7865 152.056 53.7825L164.182 38.2101Z"
                    fill="#F7FEFF" />
                <path fill-rule="evenodd" clip-rule="evenodd"
                    d="M176.307 52.1401C175.557 52.1929 175.015 52.432 174.934 52.9901C174.628 55.0955 176.259 57.5015 173.609 58.2031C170.959 58.9049 169.737 52.0879 167.596 52.2885C166.148 52.4241 166.191 54.9906 165.236 56.6995V38.2101L176.307 52.1401Z"
                    fill="#D6E4EC" />
                <path fill-rule="evenodd" clip-rule="evenodd"
                    d="M-0.300903 132.099C-0.300903 135.304 29.3217 137.901 65.8618 137.901C77.4024 137.901 88.253 137.642 97.6981 137.186C108.957 137.964 123.167 138.428 138.613 138.428C175.153 138.428 204.775 135.831 204.775 132.626C204.775 129.422 175.153 126.824 138.613 126.824C127.072 126.824 116.221 127.083 106.776 127.539C95.5169 126.761 81.3074 126.297 65.8618 126.297C29.3217 126.297 -0.300903 128.895 -0.300903 132.099ZM204.248 135.264C204.248 138.468 233.871 141.066 270.411 141.066C306.95 141.066 336.572 138.468 336.572 135.264C336.572 132.06 306.95 129.462 270.411 129.462C233.871 129.462 204.248 132.06 204.248 135.264Z"
                    fill="#9CB8DC" />
                <path fill-rule="evenodd" clip-rule="evenodd" d="M334.991 136.319L277 65.6381L219.009 136.319H334.991Z"
                    fill="#7A9FBC" />
                <path fill-rule="evenodd" clip-rule="evenodd" d="M335.518 136.319H277.527V65.6381L335.518 136.319Z"
                    fill="#598CBD" />
                <path fill-rule="evenodd" clip-rule="evenodd"
                    d="M277.527 65.6381V95.3867C276.766 96.701 275.627 97.7019 273.651 97.806C267.542 98.1287 273.142 87.967 269.409 87.967C265.675 87.967 265.166 95.7095 261.093 96.0322C257.439 96.3212 260.064 90.6425 256.967 90.636L277.527 65.6381Z"
                    fill="#F7FEFF" />
                <path fill-rule="evenodd" clip-rule="evenodd"
                    d="M295.979 87.9993C294.73 88.084 293.826 88.4679 293.691 89.364C293.181 92.7436 295.899 96.6058 291.483 97.7321C287.066 98.8588 285.028 87.9158 281.461 88.2377C279.048 88.4553 279.12 92.5753 277.527 95.3183V65.6381L295.979 87.9993Z"
                    fill="#D6E4EC" />
                <path fill-rule="evenodd" clip-rule="evenodd"
                    d="M247.26 125.634C233.842 113.752 222.506 103.397 208.406 87.3651C204.283 82.6771 198.845 75.5354 195.205 74.8396C185.428 72.9712 176.602 82.6003 168.636 91.8031C159.947 101.843 151.257 111.884 142.567 121.924C157.978 128.852 174.317 123.867 190.284 124.578C206.957 125.321 223.317 132.32 239.963 134.084C242.404 134.343 245.04 134.404 247.063 132.133C249.085 129.861 249.884 124.343 247.968 121.833"
                    fill="#E2F8F7" />
                <path fill-rule="evenodd" clip-rule="evenodd"
                    d="M168.758 91.6614C176.424 82.9152 184.996 73.7772 194.232 74.6649V124.44C192.991 124.322 191.749 124.229 190.505 124.175C174.464 123.469 158.05 128.415 142.567 121.541C151.297 111.581 160.027 101.621 168.758 91.6614Z"
                    fill="#CCEFEA" />
                <path fill-rule="evenodd" clip-rule="evenodd"
                    d="M86.6851 86.2091C86.6851 88.8308 103.916 90.9566 125.17 90.9566C146.424 90.9566 163.655 88.8308 163.655 86.2091C163.655 83.5871 146.424 81.4622 125.17 81.4622C103.916 81.4622 86.6851 83.5871 86.6851 86.2091Z"
                    fill="#98B4DB" />
                <path fill-rule="evenodd" clip-rule="evenodd" d="M163.655 85.682L125.17 35.0453L86.6851 85.682H163.655Z"
                    fill="#7A9FBC" />
                <path fill-rule="evenodd" clip-rule="evenodd" d="M163.127 85.682H125.17V35.0453L163.127 85.682Z"
                    fill="#598CBD" />
                <path fill-rule="evenodd" clip-rule="evenodd"
                    d="M125.17 35.0453V51.1477C124.774 52.362 124.346 53.5471 122.751 53.5471C119.66 53.5471 121.978 48.771 119.145 49.1001C116.686 49.3865 112.867 54.1419 109.881 56.144L125.17 35.0453Z"
                    fill="#DEFAFF" />
                <path fill-rule="evenodd" clip-rule="evenodd"
                    d="M134.132 47.8023C132.963 47.1057 132.055 46.7186 131.697 46.9153C130.225 47.7246 132.188 49.9904 130.225 50.6378C128.262 51.285 129.489 47.8864 127.036 48.372C125.848 48.6068 125.523 49.7508 125.17 50.8693V35.0453L134.132 47.8023Z"
                    fill="#BCD2DF" />
                <path fill-rule="evenodd" clip-rule="evenodd"
                    d="M265.929 133.154L219.273 70.9129L172.617 133.154H265.929Z" fill="#7A9FBC" />
                <path fill-rule="evenodd" clip-rule="evenodd" d="M266.456 133.154H219.536V70.9129L266.456 133.154Z"
                    fill="#598CBD" />
                <path fill-rule="evenodd" clip-rule="evenodd"
                    d="M219.536 70.9129V90.2358C219.045 91.6929 218.513 93.1151 216.533 93.1151C212.697 93.1151 215.573 87.3837 212.058 87.7786C209.004 88.1223 204.264 93.8288 200.557 96.2313L219.536 70.9129Z"
                    fill="#DEFAFF" />
                <path fill-rule="evenodd" clip-rule="evenodd"
                    d="M231.135 86.2213C229.622 85.3853 228.447 84.9208 227.984 85.1568C226.079 86.128 228.619 88.8469 226.079 89.624C223.539 90.4005 225.126 86.3223 221.951 86.9048C220.415 87.1866 219.994 88.5594 219.536 89.9017V70.9129L231.135 86.2213Z"
                    fill="#BCD2DF" />
                <path fill-rule="evenodd" clip-rule="evenodd"
                    d="M159.437 110.473L127.279 61.4186L95.12 110.473H159.437Z" fill="#7A9FBC" />
                <path fill-rule="evenodd" clip-rule="evenodd" d="M159.964 110.473H127.806V61.4186L159.964 110.473Z"
                    fill="#598CBD" />
                <path fill-rule="evenodd" clip-rule="evenodd"
                    d="M127.278 61.4186V76.7158C126.95 77.8695 126.596 78.9949 125.276 78.9949C122.719 78.9949 124.637 74.4578 122.292 74.7708C120.257 75.0423 117.097 79.5601 114.626 81.4623L127.278 61.4186Z"
                    fill="#C6D9E4" />
                <path fill-rule="evenodd" clip-rule="evenodd"
                    d="M135.713 73.325C134.682 72.6745 133.88 72.3137 133.565 72.497C132.266 73.2525 133.998 75.367 132.266 75.9713C130.534 76.5755 131.617 73.4034 129.452 73.8565C128.405 74.0758 128.117 75.1435 127.806 76.1876V61.4186L135.713 73.325Z"
                    fill="#9EB9DD" />
                <path fill-rule="evenodd" clip-rule="evenodd"
                    d="M167.283 92.2417C161.821 88.6022 156.36 84.9628 150.898 81.3233C147.731 79.2127 144.38 77.0363 140.598 76.7486C134.434 76.2796 129.142 80.8429 124.628 85.1117C119.009 90.4249 113.391 95.7381 107.772 101.051C110.073 102.757 113.023 103.229 115.853 103.59C130.101 105.409 144.54 105.686 158.846 104.417C160.709 104.251 162.621 104.045 164.287 103.186C165.953 102.326 167.342 100.66 167.345 98.769C167.348 96.3741 165.231 93.9376 166.366 91.8357"
                    fill="#E2F8F7" />
                <path fill-rule="evenodd" clip-rule="evenodd"
                    d="M124.587 85.1118C129.075 80.8562 134.335 76.3092 140.458 76.7442V105.198C132.228 105.172 123.999 104.639 115.834 103.594C113.01 103.233 110.067 102.76 107.772 101.054C113.377 95.7402 118.982 90.426 124.587 85.1118Z"
                    fill="#CCEFEA" />
                <path fill-rule="evenodd" clip-rule="evenodd"
                    d="M156.274 132.626L98.2828 61.946L40.2921 132.626H156.274Z" fill="#7A9FBC" />
                <path fill-rule="evenodd" clip-rule="evenodd" d="M156.274 132.626H98.2832V61.946L156.274 132.626Z"
                    fill="#598CBD" />
                <path fill-rule="evenodd" clip-rule="evenodd"
                    d="M98.283 61.946V91.6945C97.522 93.0089 96.3831 94.0098 94.4073 94.1139C88.298 94.4365 93.898 84.2749 90.1646 84.2749C86.431 84.2749 85.9219 92.0174 81.849 92.3401C78.1948 92.6291 80.8204 86.9504 77.7227 86.9439L98.283 61.946Z"
                    fill="#F7FEFF" />
                <path fill-rule="evenodd" clip-rule="evenodd"
                    d="M116.735 84.3072C115.486 84.3919 114.582 84.7758 114.447 85.6718C113.937 89.0514 116.655 92.9137 112.239 94.04C107.822 95.1666 105.784 84.2236 102.217 84.5455C99.8037 84.7631 99.8757 88.8831 98.2832 91.6262V61.946L116.735 84.3072Z"
                    fill="#D6E4EC" />
                <path fill-rule="evenodd" clip-rule="evenodd"
                    d="M219.536 133.154L161.546 62.4736L103.555 133.154H219.536Z" fill="#7A9FBC" />
                <path fill-rule="evenodd" clip-rule="evenodd" d="M220.063 133.154H162.073V62.4736L220.063 133.154Z"
                    fill="#598CBD" />
                <path fill-rule="evenodd" clip-rule="evenodd"
                    d="M162.073 62.4736V92.2221C161.312 93.5364 160.173 94.5374 158.197 94.6414C152.088 94.9641 157.688 84.8025 153.954 84.8025C150.221 84.8025 149.712 92.545 145.639 92.8676C141.985 93.1566 144.61 87.478 141.512 87.4714L162.073 62.4736Z"
                    fill="#F7FEFF" />
                <path fill-rule="evenodd" clip-rule="evenodd"
                    d="M180.524 84.8347C179.275 84.9195 178.372 85.3034 178.237 86.1994C177.727 89.579 180.445 93.4412 176.029 94.5675C171.612 95.6942 169.574 84.7512 166.007 85.0731C163.593 85.2907 163.665 89.4107 162.073 92.1537V62.4736L180.524 84.8347Z"
                    fill="#D6E4EC" />
                <path fill-rule="evenodd" clip-rule="evenodd"
                    d="M239.569 39.042C239.569 37.1712 241.519 35.6541 243.923 35.6541C244.409 35.6541 244.874 35.7187 245.311 35.8328C245.393 32.7643 248.359 30.298 252.008 30.298C255.481 30.298 258.336 32.5301 258.676 35.39C259.109 35.2505 259.583 35.1726 260.081 35.1726C261.636 35.1726 262.962 35.9253 263.498 36.9869C263.807 36.9186 264.133 36.8796 264.471 36.8796C266.441 36.8796 268.038 38.1221 268.038 39.6548C268.038 41.1873 266.441 42.4297 264.471 42.4297C264.388 42.4297 264.308 42.4242 264.227 42.42C264.162 42.4262 264.097 42.4297 264.03 42.4297H243.441C243.189 42.4297 242.95 42.3817 242.729 42.2974C240.906 41.893 239.569 40.5903 239.569 39.042Z"
                    fill="white" />
                <path fill-rule="evenodd" clip-rule="evenodd"
                    d="M203.885 26.5958C201.73 26.4729 200.03 25.0662 200.03 23.3478C200.03 21.7429 201.513 20.4098 203.464 20.1404C203.636 19.1516 204.685 18.3906 205.956 18.3906C206.149 18.3906 206.337 18.4095 206.517 18.4426C207.194 15.8614 209.677 13.9466 212.639 13.9466C215.884 13.9466 218.556 16.2459 218.905 19.202C219.036 19.1908 219.168 19.1845 219.302 19.1845C221.142 19.1845 222.668 20.2569 222.984 21.6686C224.597 21.7802 225.863 22.8398 225.863 24.1316C225.863 25.4981 224.448 26.6058 222.702 26.6058C222.629 26.6058 222.558 26.601 222.486 26.5974C222.429 26.6028 222.371 26.6058 222.312 26.6058H204.069C204.04 26.6058 204.013 26.603 203.985 26.6017C203.976 26.6013 203.968 26.6007 203.959 26.6002C203.935 26.5989 203.909 26.5985 203.885 26.5958Z"
                    fill="white" />
                <path fill-rule="evenodd" clip-rule="evenodd"
                    d="M101.374 32.9259C99.3515 32.808 97.7559 31.4598 97.7559 29.813C97.7559 28.2751 99.1473 26.9975 100.979 26.739C101.141 25.7918 102.125 25.0623 103.319 25.0623C103.5 25.0623 103.676 25.0805 103.845 25.1125C104.481 22.6387 106.813 20.8035 109.593 20.8035C112.639 20.8035 115.147 23.0071 115.475 25.8401C115.598 25.8295 115.722 25.8234 115.848 25.8234C117.575 25.8234 119.008 26.8509 119.304 28.204C120.819 28.3109 122.007 29.3263 122.007 30.5645C122.007 31.8738 120.678 32.9352 119.04 32.9352C118.971 32.9352 118.904 32.9309 118.837 32.9271C118.783 32.9325 118.728 32.9352 118.673 32.9352H101.546C101.52 32.9352 101.494 32.9325 101.468 32.9315C101.46 32.9311 101.452 32.9305 101.444 32.9301C101.421 32.9289 101.397 32.9285 101.374 32.9259Z"
                    fill="white" />
            </g>
        </g>
</svg>