<svg width="46" height="46" viewBox="0 0 46 46" fill="none" xmlns="http://www.w3.org/2000/svg">
    <path fill-rule="evenodd" clip-rule="evenodd"
        d="M22.5079 45.7337C34.9392 45.7337 45.0168 35.6562 45.0168 23.2249C45.0168 10.7936 34.9392 0.716034 22.5079 0.716034C10.0766 0.716034 -0.000915527 10.7936 -0.000915527 23.2249C-0.000915527 35.6562 10.0766 45.7337 22.5079 45.7337Z"
        fill="white" />
    <path fill-rule="evenodd" clip-rule="evenodd"
        d="M22.5081 41.2318C32.4531 41.2318 40.5152 33.1698 40.5152 23.2247C40.5152 13.2797 32.4531 5.21764 22.5081 5.21764C12.5631 5.21764 4.50104 13.2797 4.50104 23.2247C4.50104 33.1698 12.5631 41.2318 22.5081 41.2318Z"
        fill="url(#paint0_linear_0_1)" />
    <path fill-rule="evenodd" clip-rule="evenodd"
        d="M18.2874 23.4214C18.2874 22.2156 18.7038 18.3859 18.7038 18.3859C18.8614 16.8417 20.0945 16.1812 21.4616 16.918C21.4616 16.918 24.4683 18.5065 25.4502 19.1549C26.0837 19.5733 28.6776 21.6761 28.6776 21.6761C29.886 22.6465 29.891 24.2171 28.6768 25.1895C28.6768 25.1895 26.0672 27.3038 25.4255 27.7275C24.4518 28.3706 21.4623 29.9488 21.4623 29.9488C20.0964 30.6819 18.8597 30.0253 18.7048 28.4836C18.7048 28.4836 18.2874 24.635 18.2874 23.4214Z"
        fill="white" />
    <defs>
        <linearGradient id="paint0_linear_0_1" x1="4.50104" y1="5.21764" x2="4.50104" y2="41.2318"
            gradientUnits="userSpaceOnUse">
            <stop stop-color="#8DC1E9" />
            <stop offset="1" stop-color="#78ACD8" />
        </linearGradient>
    </defs>
</svg>