<svg width="46" height="46" viewBox="0 0 46 46" fill="none" xmlns="http://www.w3.org/2000/svg">
    <path fill-rule="evenodd" clip-rule="evenodd"
        d="M22.5079 45.1619C34.9392 45.1619 45.0167 35.0844 45.0167 22.6531C45.0167 10.2218 34.9392 0.144257 22.5079 0.144257C10.0766 0.144257 -0.000976562 10.2218 -0.000976562 22.6531C-0.000976562 35.0844 10.0766 45.1619 22.5079 45.1619Z"
        fill="white" />
    <path fill-rule="evenodd" clip-rule="evenodd"
        d="M22.5081 40.66C32.4531 40.66 40.5151 32.5979 40.5151 22.6529C40.5151 12.7079 32.4531 4.64584 22.5081 4.64584C12.563 4.64584 4.50098 12.7079 4.50098 22.6529C4.50098 32.5979 12.563 40.66 22.5081 40.66Z"
        fill="#E09090" />
    <path fill-rule="evenodd" clip-rule="evenodd"
        d="M18.2874 22.8499C18.2874 21.6441 18.7037 17.8143 18.7037 17.8143C18.8614 16.2702 20.0944 15.6097 21.4616 16.3465C21.4616 16.3465 24.4682 17.9349 25.4502 18.5834C26.0836 19.0017 28.6775 21.1046 28.6775 21.1046C29.886 22.0749 29.8909 23.6456 28.6768 24.618C28.6768 24.618 26.0672 26.7322 25.4255 27.156C24.4517 27.799 21.4622 29.3773 21.4622 29.3773C20.0964 30.1104 18.8596 29.4537 18.7047 27.9121C18.7047 27.9121 18.2874 24.0635 18.2874 22.8499Z"
        fill="white" />
</svg>